# xmcd
#
# Track frame offsets:
#	150
#	19838
#	37151
#	59172
#	76040
#	92230
#	104694
#	118454
#	141814
#	158385
#	171567
#	186008
#	203449
#	218903
#	235128
#	247666
#	264654
#	280398
#	294190
#	310009
#
# Disc length: 4383 seconds
#
# Revision: 2
# Processed by: cddbd v1.5.2PL0 Copyright (c) Steve Scherf et al.
# Submitted via: dBpowerAMP V4.0
#
DISCID=21111d14
DTITLE=Various Artist - Hott Urban Volume 17 Can
DYEAR=2016
DGENRE=Urban
TTITLE0=Chance The Rapper ft. 2 Chainz And Lil' Wayne - No Problem
TTITLE1=Usher ft. Future - Rivals
TTITLE2=Rae Sremmurd ft. Gucci Mane - Black Beatles
TTITLE3=Rihanna - Love On The Brain
TTITLE4=A$ap Ferg ft. Migos - Back Hurt
TTITLE5=Lil Uzi Vert - You Was Right
TTITLE6=Rob $tone ft. J. Davi$ and Spooks - Chill Bill
TTITLE7=Common ft. Marsha Ambrosius - Love Star
TTITLE8=Yo Gotti ft. Blac Youngsta - Wait For It
TTITLE9=Young Thug ft. Meek Mill - Digits
TTITLE10=2 Chainz ft. Drake - Big Amount
TTITLE11=Sevyn Streeter ft. Gucci Mane - Prolly
TTITLE12=Ayo Jay - Your Number
TTITLE13=Madeintyo ft. 2 Chainz - I Want
TTITLE14=Russ - What They Want
TTITLE15=Fat Joe, Rema Ma, French Montana ft. Rysovalid - Cookin'
TTITLE16=Dae Dae - Spend It
TTITLE17=4ey The Future - No Time To Waste
TTITLE18=Kevin Gates - Time For That
TTITLE19=Usher - Missin U
EXTD=
EXTT0=
EXTT1=
EXTT2=
EXTT3=
EXTT4=
EXTT5=
EXTT6=
EXTT7=
EXTT8=
EXTT9=
EXTT10=
EXTT11=
EXTT12=
EXTT13=
EXTT14=
EXTT15=
EXTT16=
EXTT17=
EXTT18=
EXTT19=
PLAYORDER=
